<svg viewBox="0 0 135 125">
  <path fill="#FFF" fill-rule="nonzero" d="M.1534 67.5163c7.285 29.8 32.967 50.95 63.32 52.66-.147.386-.236.801-.236 1.24a3.5 3.5 0 1 0 6.998 0c0-.413-.084-.8-.215-1.169 31.333-1.13 57.833-22.858 64.941-53.624a1.6145 1.6145 0 1 0-3.146-.727l-.001.008c-1.461 6.286-11.303 8.515-19.29 8.515-9.09 0-17.232-4.468-21.25-11.662a1.616 1.616 0 0 0-2.818 0c-3.848 6.892-11.482 11.271-20.106 11.628v-56.417h1.073c.878 0 1.592-.713 1.592-1.593V2.5093c0-.879-.712-1.593-1.592-1.593h-5.377c-.879 0-1.592.712-1.592 1.593v13.866c0 .879.712 1.593 1.592 1.593h1.073v56.358c-7.889-.64-14.99-4.861-18.865-11.351a1.6167 1.6167 0 0 0-1.386-.787h-.012a1.615 1.615 0 0 0-1.386.808c-4.064 7.047-12.153 11.423-21.113 11.423-7.823 0-15.094-3.215-19.449-8.6a1.623 1.623 0 0 0-1.26-.602c-.009.002-.02 0-.031 0a1.616 1.616 0 0 0-1.465 2.3l.001-.001zm112.37 10.134c5.978 0 12.467-1.12 16.975-3.919-8.964 24.68-31.634 41.689-58.151 43.216 5.882-6.584 19.007-23.967 19.842-48.712 5.028 5.894 12.82 9.415 21.335 9.415h-.001zm-45.312 0c8.163 0 15.667-3.232 20.704-8.693-1.239 26.193-17.176 44.043-20.808 47.781-3.582-3.756-19.173-21.57-20.371-47.797 5.1 5.464 12.543 8.71 20.475 8.71v-.001zm-44.853 0c8.369 0 16.079-3.43 21.12-9.173.885 24.57 13.635 41.843 19.392 48.429-26.755-1.824-49.58-19.5-58.04-44.828 4.793 3.552 11 5.573 17.528 5.573v-.001z"/>
</svg>
