<svg viewBox="0 0 135 124">
  <path fill="#FFF" fill-rule="nonzero" d="M134.85 57.4C127.565 27.6 101.883 6.45 71.53 4.74c.147-.386.236-.801.236-1.24a3.5 3.5 0 1 0-6.998 0c0 .413.084.8.215 1.169C33.65 5.799 7.15 27.527.042 58.293a1.614 1.614 0 1 0 3.146.727l.001-.008c1.461-6.286 11.303-8.515 19.29-8.515 9.09 0 17.232 4.468 21.25 11.662a1.616 1.616 0 0 0 2.818 0c3.848-6.892 11.482-11.271 20.106-11.628v56.417H65.58c-.878 0-1.592.713-1.592 1.593v13.866c0 .879.712 1.593 1.592 1.593h5.377c.879 0 1.592-.712 1.592-1.593v-13.866c0-.879-.712-1.593-1.592-1.593h-1.073V50.59c7.889.64 14.99 4.861 18.865 11.351.292.488.819.787 1.386.787h.012a1.615 1.615 0 0 0 1.386-.808c4.064-7.047 12.153-11.423 21.113-11.423 7.823 0 15.094 3.215 19.449 8.6a1.623 1.623 0 0 0 1.26.602c.009-.002.02 0 .031 0a1.616 1.616 0 0 0 1.465-2.3zM22.48 47.266c-5.978 0-12.467 1.12-16.975 3.919 8.964-24.68 31.634-41.689 58.151-43.216-5.882 6.584-19.007 23.967-19.842 48.712-5.028-5.894-12.82-9.415-21.335-9.415zm45.312 0c-8.163 0-15.667 3.232-20.704 8.693 1.239-26.193 17.176-44.043 20.808-47.781 3.582 3.756 19.173 21.57 20.371 47.797-5.1-5.464-12.543-8.71-20.475-8.71zm44.853 0c-8.369 0-16.079 3.43-21.12 9.173C90.64 31.869 77.89 14.596 72.133 8.01c26.755 1.824 49.58 19.5 58.04 44.828-4.793-3.552-11-5.573-17.528-5.573z"/>
</svg>
