<svg viewBox="0 0 9 13">
  <path fill="#FFF" fill-rule="nonzero" d="M4.5 0C6.9843.0024 8.9976 1.9863 9 4.4344c0 1.7637-1.3661 3.965-2.5725 5.9077-.5189.835-1.0084 1.625-1.3353 2.2923-.11.2236-.34.3656-.5922.3656-.2522 0-.4822-.142-.5922-.3656-.3269-.6673-.8164-1.4574-1.3353-2.2923C1.366 8.3994 0 6.1981 0 4.4344.0024 1.9864 2.0157.0024 4.5 0zm0 1.8503c-1.3236 0-2.3966 1.0574-2.3966 2.3617S3.1764 6.5736 4.5 6.5736c1.3236 0 2.3966-1.0573 2.3966-2.3616C6.8958 2.908 5.8233 1.851 4.5 1.8503z"/>
</svg>
