<svg xmlns="http://www.w3.org/2000/svg" viewBox="0 0 111 33">
  <path fill="#FFF" fill-rule="evenodd" d="M9.456 2.032v6.804c1.56-1.632 3.3-2.448 5.22-2.448 2.112 0 3.822.858 5.13 2.574 1.308 1.716 1.962 3.966 1.962 6.75 0 3-.732 5.4-2.196 7.2-1.464 1.8-3.42 2.7-5.868 2.7-2.448 0-4.38-.96-5.796-2.88.048.384.072.684.072.9 0 1.104-.66 1.656-1.98 1.656-1.368 0-2.052-.696-2.052-2.088V6.784c0-1.224-.204-1.836-.612-1.836-.168 0-.384.048-.648.144-.144.048-.336.072-.576.072-1.152 0-1.728-.66-1.728-1.98 0-.72.198-1.302.594-1.746.396-.444.93-.666 1.602-.666.312 0 .768.036 1.368.108.6.072 1.056.108 1.368.108.72 0 1.356-.036 1.908-.108.552-.072.96-.108 1.224-.108.672 0 1.008.42 1.008 1.26zM12.84 21.04c2.088 0 3.132-1.68 3.132-5.04 0-3.36-1.02-5.04-3.06-5.04-.984 0-1.794.474-2.43 1.422-.636.948-.954 2.142-.954 3.582 0 3.384 1.104 5.076 3.312 5.076zM31.164 8.008v3.06c.336-1.224.732-2.124 1.188-2.7 1.056-1.32 2.532-1.98 4.428-1.98 1.32 0 2.43.426 3.33 1.278.9.852 1.35 1.902 1.35 3.15 0 .984-.288 1.794-.864 2.43-.576.636-1.308.954-2.196.954-.672 0-1.242-.216-1.71-.648-.468-.432-.702-.96-.702-1.584 0-.336.156-.804.468-1.404h-.216c-1.608 0-2.688.852-3.24 2.556-.432 1.368-.648 2.94-.648 4.716v1.368c0 .864.072 1.416.216 1.656.096.144.264.216.504.216.216 0 .516-.048.9-.144.384-.096.672-.144.864-.144.528 0 .978.186 1.35.558.372.372.558.822.558 1.35 0 .696-.234 1.278-.702 1.746-.468.468-1.038.702-1.71.702-.36 0-1.032-.06-2.016-.18-.6-.072-1.356-.108-2.268-.108-.912 0-1.716.036-2.412.108-1.152.12-1.86.18-2.124.18-1.488 0-2.232-.804-2.232-2.412 0-1.344.576-2.016 1.728-2.016.192 0 .408.042.648.126.24.084.42.126.54.126.408 0 .612-.672.612-2.016V13.12c0-1.368-.204-2.052-.612-2.052-.096 0-.282.042-.558.126-.276.084-.486.126-.63.126-1.152 0-1.728-.66-1.728-1.98 0-.72.192-1.308.576-1.764.384-.456.876-.684 1.476-.684.24 0 .576.048 1.008.144.432.096.84.144 1.224.144.288 0 .708-.048 1.26-.144.552-.096.96-.144 1.224-.144.744 0 1.116.372 1.116 1.116zm20.232 17.604c-2.976 0-5.274-.84-6.894-2.52-1.62-1.68-2.43-4.044-2.43-7.092 0-3.024.804-5.382 2.412-7.074 1.608-1.692 3.864-2.538 6.768-2.538 2.856 0 5.106.84 6.75 2.52 1.644 1.68 2.466 3.984 2.466 6.912 0 3.072-.798 5.472-2.394 7.2-1.596 1.728-3.822 2.592-6.678 2.592zm-.144-14.796c-1.056 0-1.89.462-2.502 1.386-.612.924-.918 2.19-.918 3.798 0 1.632.306 2.904.918 3.816.612.912 1.47 1.368 2.574 1.368 2.232 0 3.348-1.728 3.348-5.184 0-3.456-1.14-5.184-3.42-5.184zM69.72.772c.672 0 1.008.444 1.008 1.332v17.028c0 1.2.24 1.8.72 1.8.192 0 .36-.024.504-.072.144-.048.336-.072.576-.072 1.056 0 1.584.624 1.584 1.872 0 1.656-.72 2.484-2.16 2.484-.024 0-.936-.072-2.736-.216-.552-.048-1.14-.072-1.764-.072-.528 0-1.092.036-1.692.108-1.008.12-1.644.18-1.908.18-.648 0-1.176-.222-1.584-.666-.408-.444-.612-1.026-.612-1.746 0-1.344.588-2.016 1.764-2.016.144 0 .342.042.594.126.252.084.45.126.594.126.408 0 .612-.672.612-2.016V6.964c0-1.344-.204-2.016-.612-2.016-.168 0-.384.048-.648.144-.144.048-.336.072-.576.072-1.152 0-1.728-.66-1.728-1.98 0-.744.204-1.332.612-1.764.408-.432.96-.648 1.656-.648.192 0 .6.036 1.224.108.816.096 1.428.144 1.836.144.552 0 1.032-.048 1.44-.144.552-.072.984-.108 1.296-.108zm13.104 0c.672 0 1.008.444 1.008 1.332v17.028c0 1.2.24 1.8.72 1.8.192 0 .36-.024.504-.072.144-.048.336-.072.576-.072 1.056 0 1.584.624 1.584 1.872 0 1.656-.72 2.484-2.16 2.484-.024 0-.936-.072-2.736-.216-.552-.048-1.14-.072-1.764-.072-.528 0-1.092.036-1.692.108-1.008.12-1.644.18-1.908.18-.648 0-1.176-.222-1.584-.666-.408-.444-.612-1.026-.612-1.746 0-1.344.588-2.016 1.764-2.016.144 0 .342.042.594.126.252.084.45.126.594.126.408 0 .612-.672.612-2.016V6.964c0-1.344-.204-2.016-.612-2.016-.168 0-.384.048-.648.144-.144.048-.336.072-.576.072-1.152 0-1.728-.66-1.728-1.98 0-.744.204-1.332.612-1.764.408-.432.96-.648 1.656-.648.192 0 .6.036 1.224.108.816.096 1.428.144 1.836.144.552 0 1.032-.048 1.44-.144.552-.072.984-.108 1.296-.108zm13.752 11.556l2.448 7.74 2.448-7.416c.192-.576.288-1.008.288-1.296 0-.264-.192-.468-.576-.612l-.648-.252c-.504-.192-.756-.696-.756-1.512 0-.6.174-1.098.522-1.494.348-.396.786-.594 1.314-.594.36 0 .912.048 1.656.144.744.096 1.296.144 1.656.144.384 0 .96-.048 1.728-.144.768-.096 1.344-.144 1.728-.144 1.44 0 2.16.78 2.16 2.34 0 .552-.162 1.038-.486 1.458-.324.42-.714.63-1.17.63-.096 0-.258-.024-.486-.072-.228-.048-.39-.072-.486-.072-.432 0-.78.36-1.044 1.08l-.468 1.26-3.096 8.064c-.96 2.496-1.626 4.116-1.998 4.86-.372.744-.906 1.56-1.602 2.448-1.92 2.424-4.272 3.636-7.056 3.636-1.704 0-3.108-.408-4.212-1.224-1.104-.816-1.656-1.86-1.656-3.132 0-.888.282-1.614.846-2.178.564-.564 1.278-.846 2.142-.846.744 0 1.344.222 1.8.666.456.444.684 1.014.684 1.71 0 .264-.024.528-.072.792.312.144.612.216.9.216.648 0 1.266-.384 1.854-1.152.588-.768.882-1.416.882-1.944 0-.48-.408-1.692-1.224-3.636l-4.032-9.54c-.288-.672-.576-1.008-.864-1.008-.024 0-.204.024-.54.072h-.144c-.072.024-.132.036-.18.036-1.224 0-1.836-.684-1.836-2.052 0-.672.21-1.242.63-1.71.42-.468.942-.702 1.566-.702.384 0 .954.048 1.71.144.756.096 1.326.144 1.71.144.456 0 1.224-.048 2.304-.144 1.08-.096 1.656-.144 1.728-.144 1.32 0 1.98.696 1.98 2.088 0 .984-.504 1.56-1.512 1.728-.504.072-.756.288-.756.648 0 .192.072.516.216.972z"/>
</svg>