<svg viewBox="0 0 11 34">
  <g fill="#FFF" fill-rule="nonzero">
    <path d="M5.5 34C2.4673 34 0 31.6165 0 28.6875c0-1.679.817-3.2473 2.2-4.2492V3.1875C2.2 1.4299 3.6803 0 5.5 0c1.8197 0 3.3 1.4299 3.3 3.1875v21.2508c1.383 1.0025 2.2 2.5702 2.2 4.2492C11 31.6165 8.5324 34 5.5 34zm0-32.9375c-1.213 0-2.2.9533-2.2 2.125v21.525c0 .177-.0916.3428-.244.4414-1.2248.7923-1.956 2.113-1.956 3.5336 0 2.3433 1.974 4.25 4.4 4.25s4.4-1.9067 4.4-4.25c0-1.4206-.7312-2.7413-1.956-3.5336-.1524-.0988-.244-.2643-.244-.4415V3.1875c0-1.1717-.987-2.125-2.2-2.125z"/>
    <path d="M6.6667 25.8968V21H4.3333v4.8968C2.9747 26.3288 2 27.4892 2 28.8571 2 30.5928 3.5671 32 5.5 32S9 30.5928 9 28.8571c0-1.3679-.975-2.5281-2.3333-2.9603z"/>
  </g>
</svg>
