<svg xmlns="http://www.w3.org/2000/svg" viewBox="0 0 23 34">
  <g fill="#FFF" fill-rule="nonzero">
    <path d="M9.0556 15.5059v17.4907c0 .2779-.2409.5034-.5376.5034-.2968 0-.5376-.2255-.5376-.5034V15.506c0-1.6536-1.4367-2.9992-3.2026-2.9992-1.766 0-3.2026 1.3456-3.2026 2.9992 0 1.6533 1.4366 2.9986 3.2026 2.9986.2967 0 .5376.2255.5376.5033 0 .2779-.2409.5034-.5376.5034C2.4192 19.5112.5 17.7144.5 15.506c0-2.2087 1.9192-4.006 4.2778-4.006s4.2778 1.7968 4.2778 4.0059zM22.5 11.8725c0 2.2268-1.9189 4.0384-4.2772 4.0384-.2968 0-.5376-.2274-.5376-.5075 0-.2802.2408-.5076.5376-.5076 1.7656 0 3.202-1.3563 3.202-3.0233 0-1.6675-1.4364-3.0241-3.202-3.0241-1.7663 0-3.2032 1.3566-3.2032 3.0241V30.548c0 .2802-.2408.5076-.5376.5076-.2967 0-.5376-.2274-.5376-.5076V11.8725c0-2.227 1.9195-4.0392 4.2784-4.0392 2.3583 0 4.2772 1.812 4.2772 4.0392z"/>
    <path d="M12.7222 4.5115V28.107c0 .2783-.2408.5041-.5376.5041-.2967 0-.5375-.2258-.5375-.504V4.5115c0-1.656-1.4367-3.0033-3.2027-3.0033-1.7659 0-3.2026 1.3474-3.2026 3.0033 0 1.6554 1.4367 3.0029 3.2026 3.0029.2968 0 .5376.2258.5376.504 0 .2783-.2408.5041-.5376.5041-2.3586 0-4.2777-1.7993-4.2777-4.011C4.1667 2.2998 6.0858.5 8.4444.5c2.3587 0 4.2778 1.7998 4.2778 4.0115z"/>
  </g>
</svg>