<svg viewBox="0 0 33 22">
  <g fill="#FFF" fill-rule="nonzero">
    <path d="M17.9941 8.5556H.5034C.2255 8.5556 0 8.3147 0 8.018c0-.2968.2255-.5376.5034-.5376H17.994c1.6536 0 2.9992-1.4367 2.9992-3.2026 0-1.766-1.3456-3.2026-2.9992-3.2026-1.6533 0-2.9986 1.4366-2.9986 3.2026 0 .2967-.2255.5376-.5033.5376-.2779 0-.5034-.2409-.5034-.5376C13.9888 1.9192 15.7856 0 17.994 0 20.2027 0 22 1.9192 22 4.2778s-1.7968 4.2778-4.0059 4.2778zM21.6275 22c-2.2268 0-4.0384-1.9189-4.0384-4.2772 0-.2968.2274-.5376.5075-.5376.2802 0 .5076.2408.5076.5376 0 1.7656 1.3563 3.202 3.0233 3.202 1.6675 0 3.0241-1.4364 3.0241-3.202 0-1.7663-1.3566-3.2032-3.0241-3.2032H2.952c-.2802 0-.5076-.2408-.5076-.5376 0-.2967.2274-.5376.5076-.5376h18.6755c2.227 0 4.0392 1.9195 4.0392 4.2784 0 2.3583-1.812 4.2772-4.0392 4.2772z"/>
    <path d="M28.9885 12.2222H5.393c-.2783 0-.5041-.2408-.5041-.5376 0-.2967.2258-.5375.504-.5375h23.5956c1.656 0 3.0033-1.4367 3.0033-3.2027 0-1.7659-1.3474-3.2026-3.0033-3.2026-1.6554 0-3.0029 1.4367-3.0029 3.2026 0 .2968-.2258.5376-.504.5376-.2783 0-.5041-.2408-.5041-.5376 0-2.3586 1.7993-4.2777 4.011-4.2777C31.2002 3.6667 33 5.5858 33 7.9444c0 2.3587-1.7998 4.2778-4.0115 4.2778z"/>
  </g>
</svg>
